<svg xmlns="http://www.w3.org/2000/svg" viewBox="0 0 24 24"><defs><style>.a{fill:#9ba4b4;}.b{fill:#495b7a;}</style></defs><path class="a" d="M21.384,17.752a2.108,2.108,0,0,1-.522,3.359,7.543,7.543,0,0,1-5.476.642C10.5,20.523,3.477,13.5,2.247,8.614a7.543,7.543,0,0,1,.642-5.476,2.108,2.108,0,0,1,3.359-.522L8.333,4.7a2.094,2.094,0,0,1,.445,2.328A3.877,3.877,0,0,1,8,8.2c-2.384,2.384,5.417,10.185,7.8,7.8a3.877,3.877,0,0,1,1.173-.781,2.092,2.092,0,0,1,2.328.445Z"/><path class="b" d="M10.571,2.771a1,1,0,1,0,.858,1.806,6,6,0,0,1,7.994,7.994,1,1,0,0,0,1.807.858A8,8,0,0,0,10.571,2.771Z"/><path class="b" d="M15.415,12.828a1,1,0,0,0,1.414,0,4,4,0,1,0-5.657-5.656,1,1,0,0,0,1.414,1.414,2.048,2.048,0,0,1,2.829,0,2,2,0,0,1,0,2.828A1,1,0,0,0,15.415,12.828Z"/></svg>